<?xml version="1.0" standalone="no"?>
<!DOCTYPE svg PUBLIC "-//W3C//DTD SVG 20010904//EN"
 "http://www.w3.org/TR/2001/REC-SVG-20010904/DTD/svg10.dtd">
<svg version="1.0" xmlns="http://www.w3.org/2000/svg"
 width="2560.000000pt" height="1520.000000pt" viewBox="0 0 2560.000000 1520.000000"
 preserveAspectRatio="xMidYMid meet">

<g transform="translate(0.000000,1520.000000) scale(0.100000,-0.100000)"
fill="currentColor" stroke="none">
<path d="M8405 11030 c-698 -58 -1349 -314 -1887 -742 -399 -318 -713 -707
-943 -1168 -388 -776 -466 -1673 -219 -2520 152 -523 443 -1022 829 -1419 576
-593 1308 -949 2130 -1036 163 -17 499 -20 665 -5 1594 145 2881 1364 3109
2945 86 596 14 1218 -206 1770 -299 751 -838 1363 -1549 1759 -383 212 -833
353 -1294 406 -132 15 -503 20 -635 10z m-705 -2375 l0 -455 970 0 970 0 0
455 0 455 220 0 220 0 0 -1510 0 -1510 -220 0 -220 0 0 465 0 465 -970 0 -970
0 0 -465 0 -465 -220 0 -220 0 0 1510 0 1510 220 0 220 0 0 -455z"/>
<path d="M7720 7610 l0 -240 970 0 970 0 0 240 0 240 -970 0 -970 0 0 -240z"/>
<path d="M17915 8771 c-172 -49 -308 -174 -366 -336 -30 -83 -37 -256 -15
-343 26 -103 65 -171 141 -248 114 -115 240 -165 416 -165 211 0 380 87 489
251 57 86 75 160 75 305 0 110 -4 140 -23 197 -58 166 -202 297 -379 343 -79
21 -260 19 -338 -4z m323 -246 c64 -34 96 -71 130 -144 72 -157 15 -355 -127
-434 -43 -25 -69 -31 -130 -35 -137 -7 -243 55 -299 176 -23 48 -27 71 -27
147 0 76 4 99 27 147 33 71 95 131 161 158 78 30 194 24 265 -15z"/>
<path d="M12870 8236 l0 -546 333 0 c182 0 361 5 397 10 133 21 230 91 265
190 22 63 20 184 -5 235 -24 50 -81 109 -121 125 l-29 12 40 27 c143 96 139
329 -8 422 -95 60 -113 62 -509 67 l-363 4 0 -546z m642 324 c72 -20 103 -106
58 -163 -29 -37 -98 -48 -285 -45 l-160 3 -3 108 -3 107 178 0 c98 0 195 -5
215 -10z m14 -421 c61 -16 94 -56 94 -116 0 -36 -6 -50 -28 -73 -43 -43 -90
-51 -289 -48 l-178 3 -3 117 c-2 105 -1 117 15 121 38 10 346 6 389 -4z"/>
<path d="M13962 8408 c4 -421 5 -429 81 -540 81 -118 217 -185 397 -195 171
-9 307 35 409 132 62 59 112 145 130 225 6 26 11 191 11 398 l0 352 -124 0
-125 0 -3 -337 c-3 -331 -3 -339 -27 -391 -46 -101 -131 -148 -255 -140 -108
7 -178 53 -219 145 -8 20 -13 131 -17 373 l-5 345 -128 3 -128 3 3 -373z"/>
<path d="M15120 8235 l0 -545 130 0 130 0 0 545 0 545 -130 0 -130 0 0 -545z"/>
<path d="M15520 8235 l0 -545 445 0 445 0 0 115 0 115 -315 0 -315 0 -2 428
-3 427 -127 3 -128 3 0 -546z"/>
<path d="M16187 8773 c-9 -8 -9 -82 -1 -162 l7 -61 198 0 199 0 2 -427 3 -428
128 -3 127 -3 0 431 0 430 205 0 205 0 0 115 0 115 -533 0 c-294 0 -537 -3
-540 -7z"/>
<path d="M18745 8768 c-3 -7 -4 -251 -3 -543 l3 -530 127 -3 128 -3 2 370 3
370 290 -370 290 -369 108 0 107 0 0 545 0 545 -125 0 -125 0 -2 -329 -3 -328
-254 328 -254 329 -144 0 c-106 0 -145 -3 -148 -12z"/>
<path d="M12890 6850 l0 -620 145 0 145 0 2 243 3 242 302 3 303 2 2 -247 3
-248 148 -3 147 -3 0 626 0 625 -150 0 -150 0 0 -245 0 -245 -305 0 -305 0 0
245 0 245 -145 0 -145 0 0 -620z"/>
<path d="M14240 6850 l0 -620 555 0 555 0 0 125 0 125 -405 0 -405 0 0 135 0
135 220 0 220 0 0 125 0 125 -220 0 -220 0 0 110 0 110 370 0 370 0 0 125 0
125 -520 0 -520 0 0 -620z"/>
<path d="M15412 6848 l3 -623 315 0 c360 1 415 8 557 76 196 94 306 267 320
504 21 361 -183 603 -551 654 -42 6 -205 11 -362 11 l-284 0 2 -622z m643 350
c174 -44 280 -225 245 -419 -24 -129 -82 -208 -196 -261 -67 -32 -73 -32 -231
-36 l-163 -4 0 365 0 366 98 3 c115 4 192 0 247 -14z"/>
<path d="M16700 6850 l0 -620 555 0 555 0 0 125 0 125 -405 0 -405 0 0 135 0
135 220 0 220 0 0 125 0 125 -220 0 -220 0 0 110 0 110 370 0 370 0 0 125 0
125 -520 0 -520 0 0 -620z"/>
<path d="M17870 6845 l0 -625 150 0 150 0 0 240 0 240 171 -2 171 -3 132 -237
131 -238 276 0 276 0 48 110 48 110 295 -2 295 -3 47 -105 46 -105 157 -3 c86
-1 157 0 157 2 0 3 -121 283 -269 623 l-270 618 -154 3 -154 2 -253 -577
c-139 -318 -256 -584 -260 -591 -4 -9 -40 47 -100 155 -51 92 -106 191 -122
219 l-29 52 48 23 c59 29 123 93 154 156 21 43 24 61 24 173 0 117 -2 129 -28
182 -53 107 -154 174 -299 198 -35 5 -235 10 -450 10 l-388 0 0 -625z m795
351 c42 -18 75 -69 75 -116 0 -19 -9 -50 -20 -68 -35 -57 -62 -62 -320 -62
l-230 0 0 130 0 130 230 0 c178 0 238 -3 265 -14z m1149 -295 c47 -112 85
-206 83 -208 -2 -2 -85 -2 -184 -1 l-180 3 91 212 c50 117 93 209 97 205 3 -4
45 -99 93 -211z"/>
</g>
</svg>
