<?xml version="1.0" encoding="UTF-8"?>
<svg id="Layer_1" data-name="Layer 1" xmlns="http://www.w3.org/2000/svg" xmlns:xlink="http://www.w3.org/1999/xlink" viewBox="0 0 1280 720">
  <defs>
    <style>
      .cls-1 {
        fill:rgb(255, 255, 255);
      }

      .cls-2 {
        fill: rgb(255, 255, 255);
      }

      .cls-3 {
        fill: rgb(255, 255, 255);
      }

      .cls-4 {
        fill: rgb(255, 255, 255);
      }

      .cls-5 {
        fill: rgb(255, 255, 255);
      }

      .cls-6 {
        fill: rgb(255, 255, 255);
      }

      .cls-7 {
        fill: rgb(255, 255, 255);
      }

      .cls-8 {
        fill: rgb(255, 255, 255);
      }

      .cls-9 {
        fill: rgb(255, 255, 255);
      }

      .cls-10 {
        fill: rgb(255, 255, 255);
      }

      .cls-11 {
        fill:rgb(255, 255, 255);
      }

      .cls-12 {
        fill:rgb(255, 255, 255);
      }

      .cls-13 {
        fill: rgb(255, 255, 255);
      }
    </style>
  </defs>
  <g>
    <g>
      <polygon class="cls-1" points="463.2 362.41 461.8 360.53 469.65 354.67 451.81 343.22 453.07 341.25 473.76 354.53 463.2 362.41"/>
      <polygon class="cls-7" points="460.56 360.32 444.7 329.93 450.59 313.15 452.8 313.93 447.24 329.74 462.64 359.24 460.56 360.32"/>
      <path class="cls-5" d="m481.58,403.94l-9.87-6.23-9.87,6.23-25.17-4.62-6-22-.12-.06-.03-.31-14.85-19.12,11.7-16.87-.02-.27.18-.12,4.89-22.67,18.79-5.43,20.5-12.85,20.5,12.85,18.79,5.43,4.89,22.67.18.12-.02.27,11.7,16.87-14.85,19.12-.03.31-.12.06-6,22-25.17,4.62Zm-43.04-6.65l22.83,4.19,7.96-5.03-35.85-17.74,5.07,18.58Zm35.56-.84l7.96,5.03,22.83-4.19,5.07-18.58-35.85,17.74Zm-41.33-20.7l38.94,19.27,38.94-19.27,2.96-33.88-16.81-11.07-25.1-17.39-25.07,17.37-16.83,11.08,2.96,33.88Zm-14.19-18l11.57,14.9-2.45-28.05-9.12,13.15Zm97.15-13.15l-2.45,28.05,11.57-14.9-9.12-13.15Zm-44.02-34.03l26.41,18.3,14.98,9.86-4.09-18.98-17.76-5.14-19.53-12.25-19.53,12.25-17.76,5.14-4.09,18.98,15-9.88,26.38-18.28Z"/>
      <path class="cls-6" d="m471.71,386.82l-.48-.21c-.92-.41-22.63-10.21-34.99-26.11l1.85-1.44c11.01,14.16,30.35,23.65,33.62,25.19,3.28-1.54,22.61-11.03,33.62-25.19l1.85,1.44c-12.37,15.9-34.08,25.7-34.99,26.11l-.48.21Z"/>
      <polygon class="cls-10" points="471.71 381.2 460.9 360.95 430.19 360.95 430.19 358.61 462.3 358.61 471.71 376.23 481.11 358.61 513.22 358.61 513.22 360.95 482.52 360.95 471.71 381.2"/>
      <polygon class="cls-8" points="509.77 360.65 490.23 343.13 471.71 328.99 453.19 343.13 433.65 360.65 432.09 358.91 451.73 341.3 471.71 326.05 491.76 341.36 511.33 358.91 509.77 360.65"/>
      <polygon class="cls-9" points="480.21 362.41 469.65 354.53 490.34 341.25 491.61 343.22 473.76 354.67 481.61 360.53 480.21 362.41"/>
      <polygon class="cls-3" points="482.85 360.32 480.78 359.24 496.18 329.74 490.62 313.93 492.83 313.15 498.72 329.93 482.85 360.32"/>
      <path class="cls-4" d="m471.71,416.29l-.6-.35c-6.37-3.77-10.4-12.37-10.57-12.73l2.12-.98c.04.08,3.64,7.74,9.05,11.33,5.41-3.59,9.01-11.25,9.05-11.33l2.12.98c-.17.36-4.2,8.96-10.57,12.73l-.6.35Z"/>
    </g>
    <path class="cls-12" d="m471.71,425.08c-35.88,0-65.08-29.19-65.08-65.08s29.19-65.08,65.08-65.08,65.08,29.19,65.08,65.08-29.19,65.08-65.08,65.08Zm0-127.82c-34.59,0-62.74,28.14-62.74,62.74s28.14,62.74,62.74,62.74,62.74-28.14,62.74-62.74-28.14-62.74-62.74-62.74Z"/>
  </g>
  <g>
    <path class="cls-2" d="m589.11,346.31c1.32.73,2.32,1.74,3.01,3.05.69,1.3,1.03,2.8,1.03,4.48s-.35,3.13-1.03,4.42c-.69,1.29-1.7,2.3-3.03,3.03-1.33.73-2.9,1.09-4.71,1.09h-9.53v9.19h-1.66v-26.35h11.18c1.83,0,3.41.36,4.72,1.09Zm.55,12.57c1.26-1.28,1.88-2.97,1.88-5.08s-.63-3.8-1.88-5.08c-1.25-1.28-3.02-1.92-5.31-1.92h-9.49v14.01h9.49c2.28,0,4.05-.64,5.31-1.92Z"/>
    <path class="cls-2" d="m612.26,354.85c1.39,1.43,2.09,3.42,2.09,5.98v10.73h-1.58v-10.66c0-2.16-.55-3.81-1.66-4.97-1.1-1.16-2.67-1.73-4.71-1.73-1.38,0-2.62.31-3.71.92-1.09.62-1.94,1.46-2.54,2.52-.6,1.07-.9,2.25-.9,3.56v10.35h-1.58v-26.35h1.58v11.37c.73-1.2,1.73-2.15,2.99-2.84,1.27-.69,2.68-1.04,4.24-1.04,2.46,0,4.39.72,5.78,2.15Z"/>
    <path class="cls-2" d="m637.92,352.97v18.6h-1.51l-.04-4.14c-.7,1.38-1.76,2.47-3.18,3.26-1.42.79-3.02,1.19-4.8,1.19s-3.41-.41-4.82-1.22c-1.41-.81-2.5-1.95-3.29-3.41-.79-1.46-1.19-3.11-1.19-4.97s.4-3.51,1.19-4.97c.79-1.45,1.89-2.59,3.29-3.41,1.41-.82,3.01-1.22,4.82-1.22s3.38.4,4.8,1.2c1.42.8,2.48,1.9,3.18,3.28l.04-4.18h1.51Zm-5.36,16.41c1.19-.68,2.12-1.63,2.79-2.86.66-1.23,1-2.65,1-4.25s-.33-3.02-1-4.25c-.67-1.23-1.59-2.18-2.79-2.86-1.19-.68-2.54-1.02-4.05-1.02s-2.89.34-4.07,1.02c-1.18.68-2.1,1.63-2.77,2.86-.67,1.23-1,2.65-1,4.25s.33,3.02,1,4.25c.66,1.23,1.59,2.18,2.77,2.86,1.18.68,2.53,1.02,4.07,1.02s2.86-.34,4.05-1.02Z"/>
    <path class="cls-2" d="m655.84,353.8l-.72,1.36c-.93-.55-1.97-.83-3.12-.83s-2.21.34-3.18,1.02c-.97.68-1.73,1.61-2.28,2.79-.55,1.18-.83,2.47-.83,3.88v9.56h-1.58v-18.6h1.51v4.14c.65-1.36,1.54-2.42,2.65-3.18,1.12-.76,2.37-1.15,3.75-1.15,1.48,0,2.75.34,3.8,1.02Z"/>
    <path class="cls-2" d="m686.07,354.83c1.3,1.42,1.96,3.38,1.96,5.89v10.84h-1.58v-10.77c0-2.11-.5-3.73-1.51-4.88-1-1.14-2.43-1.71-4.29-1.71-1.18,0-2.25.3-3.22.9-.97.6-1.72,1.43-2.26,2.47-.54,1.04-.81,2.22-.81,3.52v10.47h-1.58v-10.77c0-2.11-.5-3.73-1.49-4.88-.99-1.14-2.43-1.71-4.31-1.71-1.18,0-2.25.3-3.2.9-.95.6-1.7,1.43-2.24,2.47-.54,1.04-.81,2.22-.81,3.52v10.47h-1.58v-18.6h1.51v3.5c.68-1.18,1.57-2.1,2.69-2.77,1.12-.67,2.34-1,3.67-1,1.68,0,3.11.39,4.27,1.19,1.17.79,1.99,1.93,2.47,3.41.65-1.43,1.59-2.55,2.8-3.37,1.22-.81,2.59-1.22,4.12-1.22,2.28,0,4.08.71,5.38,2.13Z"/>
    <path class="cls-2" d="m695.82,370.96c-1.46-.63-2.59-1.43-3.39-2.41l.98-1.05c.78.88,1.79,1.58,3.05,2.11,1.25.53,2.61.79,4.07.79,1.83,0,3.3-.34,4.4-1.04,1.1-.69,1.66-1.61,1.66-2.77,0-.7-.19-1.28-.56-1.73-.38-.45-1.01-.84-1.9-1.17-.89-.32-2.18-.65-3.86-.98-1.83-.35-3.26-.73-4.29-1.15-1.03-.41-1.77-.93-2.22-1.54-.45-.62-.68-1.4-.68-2.35,0-1.56.68-2.78,2.03-3.69,1.36-.9,3.19-1.36,5.5-1.36,1.48,0,2.79.2,3.93.6,1.14.4,2.22,1.02,3.22,1.84l-.9,1.13c-.9-.73-1.84-1.26-2.8-1.6-.97-.34-2.1-.51-3.41-.51-1.91,0-3.38.31-4.42.94-1.04.63-1.56,1.51-1.56,2.63,0,.68.18,1.22.53,1.64.35.41.94.77,1.75,1.07.82.3,2,.6,3.56.9,1.93.35,3.44.75,4.54,1.19,1.09.44,1.88.99,2.37,1.66.49.67.73,1.5.73,2.5,0,1.58-.7,2.86-2.09,3.82-1.39.97-3.23,1.45-5.51,1.45-1.68,0-3.25-.31-4.71-.94Z"/>
    <path class="cls-2" d="m747.53,370.68c-1.47-.82-2.62-1.96-3.46-3.43-.84-1.47-1.26-3.13-1.26-4.99s.42-3.59,1.26-5.04c.84-1.46,1.99-2.59,3.44-3.39,1.46-.8,3.1-1.2,4.93-1.2,2.58,0,4.79.92,6.63,2.75l-1.05,1.05c-.73-.78-1.58-1.36-2.54-1.73-.97-.38-1.99-.56-3.07-.56-1.48,0-2.83.32-4.05.96-1.22.64-2.18,1.58-2.9,2.81-.71,1.23-1.07,2.69-1.07,4.37s.36,3.06,1.07,4.29c.72,1.23,1.69,2.18,2.92,2.84,1.23.67,2.58,1,4.07,1,1.08,0,2.11-.19,3.11-.58.99-.39,1.88-.97,2.65-1.75l1.05,1.13c-.93.88-1.98,1.55-3.16,2.02-1.18.46-2.4.7-3.65.7-1.81,0-3.44-.41-4.91-1.22Z"/>
    <path class="cls-2" d="m778.55,354.85c1.39,1.43,2.09,3.42,2.09,5.98v10.73h-1.58v-10.66c0-2.16-.55-3.81-1.66-4.97-1.1-1.16-2.67-1.73-4.71-1.73-1.38,0-2.62.31-3.71.92-1.09.62-1.94,1.46-2.54,2.52-.6,1.07-.9,2.25-.9,3.56v10.35h-1.58v-26.35h1.58v11.37c.73-1.2,1.72-2.15,2.99-2.84,1.27-.69,2.68-1.04,4.24-1.04,2.46,0,4.38.72,5.78,2.15Z"/>
    <path class="cls-2" d="m804.21,352.97v18.6h-1.51l-.04-4.14c-.7,1.38-1.76,2.47-3.18,3.26-1.42.79-3.02,1.19-4.8,1.19s-3.41-.41-4.82-1.22c-1.41-.81-2.5-1.95-3.29-3.41-.79-1.46-1.19-3.11-1.19-4.97s.39-3.51,1.19-4.97c.79-1.45,1.89-2.59,3.29-3.41,1.41-.82,3.01-1.22,4.82-1.22s3.38.4,4.8,1.2c1.42.8,2.48,1.9,3.18,3.28l.04-4.18h1.51Zm-5.36,16.41c1.19-.68,2.12-1.63,2.79-2.86.66-1.23,1-2.65,1-4.25s-.33-3.02-1-4.25c-.67-1.23-1.59-2.18-2.79-2.86-1.19-.68-2.54-1.02-4.05-1.02s-2.89.34-4.07,1.02c-1.18.68-2.1,1.63-2.77,2.86-.67,1.23-1,2.65-1,4.25s.33,3.02,1,4.25c.66,1.23,1.59,2.18,2.77,2.86,1.18.68,2.53,1.02,4.07,1.02s2.86-.34,4.05-1.02Z"/>
    <path class="cls-2" d="m825.01,354.85c1.39,1.43,2.09,3.42,2.09,5.98v10.73h-1.58v-10.66c0-2.16-.55-3.81-1.66-4.97-1.11-1.16-2.67-1.73-4.71-1.73-1.38,0-2.62.31-3.71.92-1.09.62-1.94,1.46-2.54,2.52-.6,1.07-.9,2.25-.9,3.56v10.35h-1.58v-18.6h1.51v3.65c.73-1.2,1.73-2.16,3.01-2.86,1.28-.7,2.71-1.05,4.29-1.05,2.46,0,4.38.72,5.78,2.15Z"/>
    <path class="cls-2" d="m849.2,372.15c1,1.07,1.51,2.37,1.51,3.9,0,1.33-.39,2.5-1.17,3.52-.78,1.02-1.87,1.81-3.28,2.37-1.41.57-3.03.85-4.86.85s-3.33-.31-4.73-.94c-1.39-.63-2.47-1.5-3.24-2.62-.77-1.12-1.15-2.38-1.15-3.78h1.58c0,1.1.32,2.1.96,2.99.64.89,1.53,1.59,2.67,2.09,1.14.5,2.44.75,3.9.75,2.33,0,4.2-.48,5.61-1.43,1.41-.95,2.11-2.22,2.11-3.8s-.7-2.85-2.11-3.8c-1.41-.95-3.28-1.43-5.61-1.43-1.93,0-3.62-.37-5.06-1.11-1.44-.74-2.55-1.79-3.33-3.14-.78-1.36-1.17-2.95-1.17-4.78,0-1.71.41-3.25,1.24-4.63.83-1.38,1.97-2.47,3.43-3.26,1.45-.79,3.07-1.19,4.86-1.19,1.05,0,2.11.15,3.16.45,1.05.3,1.93.7,2.63,1.21l2.37-2.86,1.17.9-2.41,2.86c.95,1.16,1.62,2.21,2.01,3.16.39.95.58,2.07.58,3.35,0,1.93-.55,3.65-1.66,5.16-1.11,1.51-2.54,2.5-4.29,2.97,1.83.43,3.25,1.17,4.25,2.24Zm-13.65-4.86c1.42,1.34,3.37,2.02,5.86,2.02,1.45,0,2.79-.33,3.99-1,1.2-.66,2.16-1.58,2.86-2.73.7-1.15,1.06-2.42,1.06-3.8,0-1.51-.33-2.83-.98-3.97-.65-1.14-1.58-2.03-2.79-2.65-1.21-.63-2.59-.94-4.14-.94s-2.91.33-4.12.98c-1.22.66-2.16,1.55-2.84,2.69-.68,1.14-1.02,2.44-1.02,3.9,0,2.33.71,4.17,2.13,5.51Z"/>
    <path class="cls-2" d="m868.94,353.78c1.42.77,2.51,1.84,3.28,3.22.76,1.38,1.15,2.97,1.15,4.78,0,.48-.01.84-.04,1.09h-17.06c.18,2.33.97,4.18,2.37,5.53,1.41,1.35,3.23,2.03,5.46,2.03,1.38,0,2.7-.27,3.95-.83,1.26-.55,2.22-1.28,2.9-2.18l1.13.94c-.88,1.1-2.02,1.98-3.43,2.62-1.41.64-2.92.96-4.56.96-1.81,0-3.42-.41-4.86-1.24-1.43-.83-2.55-1.98-3.35-3.45-.8-1.47-1.21-3.13-1.21-4.99s.4-3.51,1.19-4.97c.79-1.45,1.9-2.6,3.31-3.43,1.42-.83,3.03-1.24,4.84-1.24s3.49.38,4.91,1.15Zm-10.3,2.34c-1.41,1.34-2.2,3.11-2.37,5.29h15.55c0-1.43-.33-2.7-1-3.8-.66-1.1-1.58-1.96-2.75-2.58-1.17-.62-2.52-.92-4.05-.92-2.18,0-3.98.67-5.38,2.01Z"/>
    <polygon class="cls-2" points="568.84 371.42 568.89 371.57 568.95 371.57 568.84 371.42"/>
    <polygon class="cls-2" points="558.14 356.77 554.88 352.16 549.93 345.21 548.05 345.21 557.01 358.05 547.3 371.57 549.29 371.57 558.1 359.29 566.91 371.57 568.73 371.57 558.16 356.75 558.14 356.77"/>
    <polygon class="cls-13" points="568.19 345.21 566.2 345.21 562.62 350.37 560.54 353.35 561.5 354.7 568.19 345.21"/>
    <polygon class="cls-2" points="741.97 371.42 742.02 371.57 742.08 371.57 741.97 371.42"/>
    <polygon class="cls-2" points="731.27 356.77 728.01 352.16 723.06 345.21 721.18 345.21 730.14 358.05 720.43 371.57 722.42 371.57 731.23 359.29 740.04 371.57 741.86 371.57 731.29 356.75 731.27 356.77"/>
    <polygon class="cls-11" points="741.32 345.21 739.33 345.21 735.75 350.37 733.67 353.35 734.63 354.7 741.32 345.21"/>
  </g>
</svg>